<?xml version="1.0" encoding="UTF-8"?>
<svg id="Layer_1" data-name="Layer 1" xmlns="http://www.w3.org/2000/svg" version="1.1" viewBox="0 0 612 792">
  <defs>
    <style>
      .cls-1 {
        fill: #603a16;
        stroke-width: 0px;
      }
    </style>
  </defs>
  <polygon class="cls-1" points="88.9 394.9 89.5 408.1 83 408.4 82.5 395.6 76.4 395.8 77 408.7 70.9 408.9 70.3 395.8 64.2 396 65.1 415.9 95.8 414.6 95 394.7 88.9 394.9"/>
  <polygon class="cls-1" points="67.7 355.1 86.4 366.1 65.5 371.9 64.5 379.2 95 383.3 95.9 376.9 77.6 374.5 96.9 369.5 97.4 365.7 79.8 355.7 98.4 358.2 99.3 351.8 68.7 347.7 67.7 355.1"/>
  <path class="cls-1" d="M95.5,326c.8-2.6.9-5.2,0-7.4-1-2.6-3.1-4.5-6.2-5.5-7-2.3-11.2,2.2-12.8,7.2l-3.1,9.7,29.3,9.5,2.1-6.4-10.5-3.4,1.2-3.7ZM89.7,325.1l-.9,2.9-7.7-2.5.9-2.9c1-2.9,3.3-3.6,5.3-3,1.8.6,3.6,2,2.4,5.5Z"/>
  <path class="cls-1" d="M109.8,303l4.7-9.3,6.5,1,3.3-6.6-32.5-4-3.1,6.1,22.4,23.9,3.3-6.5-4.7-4.6ZM105.6,298.8l-7.7-7.6,10.7,1.6-3,6Z"/>
  <polygon class="cls-1" points="133.5 274.7 117.7 262.9 140.7 265.2 144.7 259.7 120 241.3 116.2 246.5 131.7 258.1 109.1 255.9 104.9 261.5 129.6 279.9 133.5 274.7"/>
  <path class="cls-1" d="M156.3,247.5l-2.9-5.9,7.6-7.2,5.8,3.2,5.4-5.1-29.2-14.9-5,4.7,12.9,30.1,5.3-5ZM146.4,226.4l9.5,5.2-4.9,4.6-4.6-9.8Z"/>
  <path class="cls-1" d="M189.8,220.1c5.9-3.9,9.6-12.1,3.8-20.9-5.4-8.2-13-9.9-20.9-4.7l-9.8,6.4,16.9,25.7,9.9-6.5ZM175.4,199.7c6.3-4.1,10.5.3,12.4,3.2,1.4,2.1,2.1,4.4,2,6.5,0,2.5-1.3,4.5-3.5,6l-3.9,2.6-10.5-16,3.5-2.3Z"/>
  <path class="cls-1" d="M216.1,205.2l-.7-6.5,9.6-4.1,4.4,5,6.8-2.9-22.3-23.9-6.3,2.7,1.9,32.7,6.7-2.9ZM221.2,190.1l-6.2,2.7-1-10.8,7.2,8.1Z"/>
  <path class="cls-1" d="M247.3,179.1l6.9.7c3.1.3,3.7,1,4.1,2.3.5,2-1.9,3.5-3.7,4-1.5.4-5,.8-5.9-2.8v-.4c0,0-6.6,1.7-6.6,1.7v.3c.5,1.6,1.3,3.7,3.3,5.3,1.6,1.3,3.7,2,6.2,2s2.8-.2,4.4-.6c3.7-.9,6.4-2.8,7.8-5.3,1.1-2,1.4-4.4.9-6.6-1-4.1-3.9-6.3-8.9-6.6l-5.8-.4c-2.2-.2-3.6-1-3.9-2.4-.4-1.8.9-3.3,3.6-3.9,1.1-.3,2.2-.2,3,.1.6.2,1.4.8,1.6,1.8v.4c0,0,6.6-1.7,6.6-1.7v-.3c-.2-.3-2.3-8.4-13-5.8-8.3,2-9,8.7-8.2,12,.8,3.4,3.8,5.8,7.6,6.2Z"/>
  <path class="cls-1" d="M310.4,185.8c.1,0,.3,0,.4,0,8.8,0,14.6-6.4,15-16.8v-.4s-14.6-.3-14.6-.3v5.8c-.1,0,7,.1,7,.1-.7,2.6-2.9,5.4-7.1,5.4s-.1,0-.2,0c-2.5,0-4.6-1.1-6.1-3.1-1.4-1.9-2.2-4.3-2.2-7,0-3,.9-5.5,2.5-7.2,1.4-1.6,3.4-2.5,5.6-2.5s.1,0,.2,0c3.6,0,5.9,1.5,7,4.3v.2c0,0,7.1-.3,7.1-.3v-.5c-.9-2.4-3.3-9.7-14-9.9-4.3,0-8.2,1.6-11,4.7-2.6,2.9-4.2,6.9-4.3,11-.2,7.8,5.3,16.1,14.7,16.3Z"/>
  <path class="cls-1" d="M350,190.4c1.2.3,2.3.4,3.4.4,7.8,0,13.1-6.1,14.6-12.9,1.7-7.8-1.7-16.7-11.3-18.7-4.4-.9-8.5,0-11.9,2.5-3.1,2.3-5.2,5.9-6.1,10-1.7,7.8,1.7,16.7,11.3,18.7ZM345.4,173.1c.6-2.6,1.8-4.9,3.4-6.4,1.4-1.2,3-1.8,4.8-1.8s1.1,0,1.7.2c5.4,1.2,6.8,6.5,5.8,11.3-.6,2.6-1.8,4.9-3.4,6.4-1.8,1.6-4.1,2.2-6.5,1.6-2.4-.5-4.3-2-5.3-4.1-.9-2-1.1-4.6-.5-7.2Z"/>
  <path class="cls-1" d="M387,202c2,.8,3.9,1.2,5.7,1.2s2.6-.2,3.7-.6c3.3-1.2,5.9-3.9,7.6-8l6.9-16.6-6.2-2.6-6.9,16.6c-1.9,4.5-4.7,5.9-8.5,4.3-1.9-.8-3.1-1.9-3.5-3.4-.5-1.5-.3-3.4.7-5.6l6.9-16.6-6.2-2.6-6.9,16.6c-4.8,11.5,3.9,16.2,6.7,17.3Z"/>
  <path class="cls-1" d="M415.7,216l6.4-10,2.5,1.6-1.4,13.2,6.7,4.3.9-14.6c3.9.8,7.5-1.6,9.2-4.4,1.4-2.2,1.8-4.7,1.3-7-.6-2.5-2.3-4.7-4.9-6.3l-9.8-6.2-16.5,26,5.7,3.6ZM429.1,194.9l2.9,1.8c3.8,2.4,3.1,4.5,2.2,5.8-.4.6-1.1,1.4-2.1,1.6-1.1.3-2.4,0-3.9-1l-3.1-2,4-6.3Z"/>
  <polygon class="cls-1" points="442.7 235.3 455.2 221.8 448.2 240.4 451 243 469.3 234.4 456.5 248.1 461.2 252.6 482.2 230 476.8 224.9 457 233.8 464.4 213.4 458.9 208.3 437.9 230.9 442.7 235.3"/>
  <path class="cls-1" d="M471.8,265.7l6.2-2.1,6.2,8.5-3.9,5.4,4.4,5.9,18.3-27.1-4-5.5-31.5,9.1,4.3,5.9ZM494,258.4l-6.3,8.8-4-5.4,10.3-3.4Z"/>
  <polygon class="cls-1" points="525.5 294.9 508.1 303.4 520.2 284.5 520.3 284.3 517.2 278.1 489.6 291.7 492.5 297.5 510.2 288.8 497.9 308 497.8 308.2 500.7 314.3 528.4 300.7 525.5 294.9"/>
  <path class="cls-1" d="M527.4,347.4c9.4-2.7,13.3-9.4,10.8-18.5l-3.2-11.2-29.6,8.4,3.2,11.4c1.6,5.6,6.4,10.7,13.8,10.7s3.3-.2,5.1-.7ZM518.7,340.7c-2.4-.8-3.9-2.6-4.7-5.2l-1.3-4.5,18.4-5.2,1.2,4.1c.8,2.9.5,5.4-1,7.3-1.2,1.6-3.2,2.9-5.9,3.6-2.4.7-4.8.7-6.8,0Z"/>
  <polygon class="cls-1" points="522.7 382.1 521.2 369 527.6 368.3 529 381 535.1 380.4 533.6 367.6 539.7 366.9 541.2 380 547.2 379.4 545 359.6 514.4 363 516.6 382.8 522.7 382.1"/>
  <path class="cls-1" d="M544.9,397.2c-1.7-1.6-3.9-2.5-6.3-2.6-3.5-.1-6.7,2-8.1,5.6l-2.6,6.5c-1.2,2.9-2,3.3-3.3,3.3-2,0-2.8-2.8-2.8-4.7,0-1.5.4-2.7,1.1-3.6.7-.9,1.8-1.4,3.2-1.3h.4s.1-6.7.1-6.7h-.4c-1.6,0-3.9.1-6,1.6-2.6,1.8-4.1,5.1-4.3,9.7-.2,3.8.9,6.9,3,9,1.6,1.6,3.9,2.6,6.1,2.7.2,0,.3,0,.5,0,4,0,6.8-2.2,8.4-6.7l2-5.4c.8-2.1,1.9-3.1,3.3-3.1.9,0,1.6.5,2.1,1.2.5.8.8,2,.7,3.3,0,1.1-.4,2.1-.9,2.9-.4.5-1.1,1.1-2.2,1.1h-.4s-.1,6.7-.1,6.7h.4c.4,0,8.7.2,9.2-10.7.1-3.6-.9-6.5-3-8.5Z"/>
  <path class="cls-1" d="M155.6,317.2c-2.9,0-4.5,1.6-4.5,4.5v148.3c0,3,1.5,4.5,4.5,4.5h11.3c2.9,0,4.5-1.6,4.5-4.5v-75.6c0-1.3.3-1.9,1.1-1.9s.9.5,1.3,1.3l13,32.1c.8,2.4,2.6,3.5,5.1,3.5h1.1c2.5,0,4.2-1.1,5.1-3.5l13.2-32.6c.4-.9.8-1.3,1.3-1.3s1.1.6,1.1,1.8v76.2c0,3,1.5,4.5,4.5,4.5h11.2c3,0,4.5-1.6,4.5-4.5h0v-148.3c0-3-1.5-4.5-4.5-4.5h-11.9c-1.2,0-2.3.3-3.3,1-.9.8-1.6,1.5-1.9,2.6l-17.8,63.4c-.2.9-.6,1.3-1.3,1.3s-1.3-.4-1.6-1.3l-19.1-63.4c-.3-1.1-.8-1.9-1.9-2.6-.9-.7-2-1-3.2-1h-12.1Z"/>
  <path class="cls-1" d="M303.7,454.6h-47.2c-3,0-4.5,1.6-4.5,4.5v11.2c0,3,1.6,4.5,4.5,4.5h47.2c2.9,0,4.5-1.5,4.5-4.5v-11.2c0-3-1.5-4.5-4.5-4.5Z"/>
  <path class="cls-1" d="M308.1,429.9v-90.1c0-7.3-1.9-13-5.7-16.7-3.8-3.8-9.4-5.7-16.7-5.7h-11.2c-7.3,0-13,1.9-16.7,5.7-3.8,3.9-5.7,9.4-5.7,16.7v90.1c0,2.9,1.6,4.5,4.5,4.5h11.2c3,0,4.5-1.5,4.5-4.5v-31.2c0-2.9,1.5-4.5,4.5-4.5h6.7c3,0,4.5,1.5,4.5,4.5v31.2c0,2.9,1.5,4.5,4.5,4.5h11.3c2.9,0,4.5-1.5,4.5-4.5h0ZM288,369.5c0,2.9-1.5,4.5-4.5,4.5h-6.7c-2.9,0-4.5-1.5-4.5-4.5v-27.4c0-2.9,1.5-4.5,4.5-4.5h6.7c3,0,4.5,1.5,4.5,4.5v27.4Z"/>
  <path class="cls-1" d="M368.7,356.6h11.2c3,0,4.5-1.5,4.5-4.5h0v-12.1c0-6.6-2.2-12-6.5-16.4-4.4-4.3-9.8-6.5-16.4-6.5h-12.5c-6.6,0-12,2.2-16.4,6.5-4.3,4.4-6.5,9.8-6.5,16.4v43.6c0,7.3,1.9,13,5.7,16.7,3.8,3.8,9.4,5.7,16.7,5.7h11.2c2.9,0,4.5,1.5,4.5,4.5v39.5c0,1.2-.4,2.3-1.3,3.1-.8.9-1.9,1.3-3.1,1.3h-9c-1.2,0-2.2-.4-3.1-1.3-.9-.8-1.3-1.9-1.3-3.1v-10.3c0-2.9-1.5-4.5-4.5-4.5h-11.2c-3,0-4.5,1.5-4.5,4.5v12.1c0,6.6,2.2,12.1,6.5,16.4,4.4,4.3,9.8,6.5,16.4,6.5h12.5c6.6,0,12-2.2,16.4-6.5,4.3-4.3,6.5-9.8,6.5-16.4v-43.6c0-7.3-1.9-13-5.7-16.7-3.9-3.8-9.4-5.7-16.7-5.7h-11.3c-2.9,0-4.5-1.5-4.5-4.5v-39.5c0-1.2.4-2.3,1.3-3.1.9-.9,1.9-1.3,3.1-1.3h9c1.2,0,2.3.4,3.1,1.3.9.8,1.3,1.9,1.3,3.1v10.3c0,2.9,1.6,4.5,4.5,4.5Z"/>
  <path class="cls-1" d="M460.9,470h0v-130.3c0-7.3-1.9-13-5.7-16.7-3.9-3.8-9.4-5.7-16.7-5.7h-13.5c-7.3,0-13,1.9-16.7,5.7-3.8,3.9-5.7,9.4-5.7,16.7v130.3c0,3,1.5,4.5,4.5,4.5h11.2c3,0,4.5-1.6,4.5-4.5v-31.2c0-3,1.5-4.5,4.5-4.5h9c2.9,0,4.5,1.5,4.5,4.5v31.2c0,3,1.5,4.5,4.5,4.5h11.2c3,0,4.5-1.6,4.5-4.5ZM440.6,409.6c0,3-1.5,4.5-4.5,4.5h-9c-2.9,0-4.5-1.5-4.5-4.5v-67.6c0-2.9,1.5-4.5,4.5-4.5h9c2.9,0,4.5,1.5,4.5,4.5v67.6Z"/>
  <path class="cls-1" d="M503.4,198.6c-52.7-52.7-122.8-81.8-197.4-81.8s-144.7,29-197.4,81.8c-52.7,52.7-81.8,122.8-81.8,197.4s29,144.7,81.8,197.4c52.7,52.7,122.8,81.8,197.4,81.8s144.7-29,197.4-81.8c52.7-52.7,81.8-122.8,81.8-197.4s-29-144.7-81.8-197.4ZM496,586c-50.8,50.8-118.3,78.7-190,78.7s-139.3-28-190-78.7c-50.8-50.8-78.7-118.3-78.7-190s28-139.3,78.7-190c50.8-50.8,118.3-78.7,190-78.7s139.3,28,190,78.7c50.8,50.8,78.7,118.3,78.7,190s-28,139.3-78.7,190Z"/>
  <path class="cls-1" d="M437.7,285.8l6.3-5.3c-34.3-41-84.7-64.5-138.1-64.5s-103.8,23.5-138.1,64.5l6.3,5.3c32.8-39.1,80.8-61.6,131.7-61.6s99,22.4,131.7,61.6Z"/>
  <path class="cls-1" d="M448.5,506l-6.6-5.1c-32.8,42.4-82.4,66.8-135.9,66.8s-103.1-24.3-135.9-66.8l-6.6,5.1c34.4,44.5,86.3,70,142.5,70s108.1-25.5,142.5-70Z"/>
  <polygon class="cls-1" points="137.8 540 130.7 530.9 135.6 527 143 536.4 147.9 532.6 136.3 517.7 111.4 537.2 115.7 542.6 125.8 534.7 132.9 543.9 137.8 540"/>
  <path class="cls-1" d="M160.2,545.3l-30,15,5.4,5.1,5.9-3.3,7.8,7.4-2.9,6.1,5.5,5.2,13.4-30.7-5.1-4.8ZM151.8,564.1l-5-4.8,9.8-5.3-4.7,10.1Z"/>
  <rect class="cls-1" x="159.2" y="574.8" width="31.6" height="6.9" transform="translate(-396.5 382.2) rotate(-54.2)"/>
  <polygon class="cls-1" points="192.9 579.1 200 583 187.8 605.2 193.8 608.5 206 586.3 213.1 590.2 216.1 584.7 195.8 573.6 192.9 579.1"/>
  <path class="cls-1" d="M250.6,597.3l-19,27.7,7.2,1.8,3.5-5.7,10.4,2.7.4,6.8,7.3,1.9-3.1-33.4-6.8-1.7ZM245.6,616l6-9.4.7,11.1-6.7-1.7Z"/>
  <polygon class="cls-1" points="253.8 597 257.8 598.1 255.5 590.8 249.1 589.1 253.8 597"/>
  <polygon class="cls-1" points="302.5 604.6 295.7 604.5 295.1 636.1 313.9 636.4 314 629.9 302.1 629.7 302.5 604.6"/>
  <path class="cls-1" d="M339.6,602l-6.9,1-6.9,32.9,7.3-1.1,1.1-6.7,10.6-1.5,3,6.1,7.5-1.1-15.6-29.4v-.2ZM335.3,622.2l1.9-11,5,10-6.8,1Z"/>
  <polygon class="cls-1" points="406.5 579.6 399.5 582.8 400 605 383.7 589.9 376.7 593 389.6 621.5 389.7 621.8 395.8 619.1 388 601.9 402.8 615.9 406.4 614.3 405.5 593.6 413.4 611.1 419.5 608.4 406.6 580 406.5 579.6"/>
  <path class="cls-1" d="M423.2,568.7l8.8,32.4,6.1-4.3-2.1-6.4,8.8-6.2,5.4,4.1,6.2-4.3-27.4-19.3-5.7,4ZM440,580.6l-5.7,4-3.3-10.6,8.9,6.6Z"/>
  <rect class="cls-1" x="455" y="544.9" width="6.9" height="31.6" transform="translate(-258.9 460.9) rotate(-42.8)"/>
  <polygon class="cls-1" points="475.8 518 471.6 523.1 487 535.7 464.2 532.5 464 532.4 459.4 538 483.6 557.7 483.9 558 488.1 552.8 472.4 540 495.8 543.3 500.2 538 476.1 518.2 475.8 518"/>
</svg>